<svg xmlns="http://www.w3.org/2000/svg" xmlns:xlink="http://www.w3.org/1999/xlink" width="1360" height="1760"><g transform="translate(0 0)"><path d="M0 0h1360v1760H0z" fill="#fff"/><path d="M510 25c0-2.76 2.24-5 5-5h230c2.76 0 5 2.24 5 5v70c0 2.76-2.24 5-5 5H515c-2.76 0-5-2.24-5-5z" stroke="#000" stroke-width="2" fill="#fff"/><use xlink:href="#a" transform="matrix(1,0,0,1,515,25) translate(15.225000000000023 38.6)"/><path d="M780 185c0-2.76 2.24-5 5-5h190c2.76 0 5 2.24 5 5v70c0 2.76-2.24 5-5 5H785c-2.76 0-5-2.24-5-5z" stroke="#000" stroke-width="2" fill="#fff"/><use xlink:href="#b" transform="matrix(1,0,0,1,785,185) translate(11.725000000000023 38.6)"/><path d="M320 185c0-2.76 2.24-5 5-5h170c2.76 0 5 2.24 5 5v70c0 2.76-2.24 5-5 5H325c-2.76 0-5-2.24-5-5z" stroke="#000" stroke-width="2" fill="#fff"/><use xlink:href="#c" transform="matrix(1,0,0,1,325,185) translate(15.224999999999994 38.6)"/><path d="M12 405c0-2.76 2.24-5 5-5h150c2.76 0 5 2.24 5 5v50c0 2.76-2.24 5-5 5H17c-2.76 0-5-2.24-5-5z" stroke="#000" stroke-width="2" fill="#fff"/><use xlink:href="#d" transform="matrix(1,0,0,1,17,405) translate(5.224999999999994 28.6)"/><path d="M200 405c0-2.76 2.24-5 5-5h150c2.76 0 5 2.24 5 5v50c0 2.76-2.24 5-5 5H205c-2.76 0-5-2.24-5-5z" stroke="#000" stroke-width="2" fill="#fff"/><use xlink:href="#e" transform="matrix(1,0,0,1,205,405) translate(9.149999999999991 28.6)"/><path d="M172 505c0-2.76 2.24-5 5-5h158c2.76 0 5 2.24 5 5v50c0 2.76-2.24 5-5 5H177c-2.76 0-5-2.24-5-5z" stroke="#000" stroke-width="2" fill="#fff"/><use xlink:href="#f" transform="matrix(1,0,0,1,177,505) translate(5.174999999999997 28.6)"/><path d="M280 460l-.2 3.27-.53 2.74-.82 2.47-1.14 2.37-1.66 2.55-3.12 3.6-8.16 8.6-1.67 2.56-1.15 2.37-.82 2.46-.53 2.73-.2 3.27" stroke="#000" stroke-width="2" fill="none"/><path d="M280.95 460.33L280 460h1.06zM269.06 487.04L260 499l.3-15z"/><path d="M270.7 486.55L260.5 500h-1.52l.35-17.4zm-9.64 9.4l6.37-8.4-6.16-2.15z"/><path d="M410 260l-.02 1.05-.07 1.02-.1 1.02-.14 1-.2 1-.23 1-.28 1-.32 1-.38 1-.43 1.04-.5 1.04-.55 1.07-.64 1.1-.7 1.12-.82 1.16-.9 1.2-1.05 1.27-1.2 1.32-1.35 1.4-1.58 1.47-1.82 1.56-2.13 1.7-2.52 1.8-3 2-3.62 2.2-4.46 2.44-5.6 2.77-7.2 3.2-9.62 3.8-13.7 4.75-22.04 6.6-136.65 35.6-13.7 4.76-9.63 3.8-7.2 3.2-5.6 2.77-4.45 2.44-3.62 2.2-3 1.98-2.52 1.82-2.13 1.7-1.82 1.56-1.58 1.48-1.36 1.4-1.2 1.3-1.03 1.27-.9 1.22-.82 1.16-.7 1.13-.65 1.1-.55 1.07-.5 1.04-.43 1.04-.38 1.02-.32 1-.28 1-.24 1-.2 1-.14 1-.1 1.02-.08 1.02-.02 1.05" stroke="#000" stroke-width="2" fill="none"/><path d="M410.96 260.3l-.97-.3h1.05zM129.64 387L121 399.24l-.22-15z"/><path d="M131.25 386.44L121.7 400H120l-.24-17.1zm-9.3 9.72l6.08-8.62-6.23-1.93z"/><path d="M380 405c0-2.76 2.24-5 5-5h150c2.76 0 5 2.24 5 5v50c0 2.76-2.24 5-5 5H385c-2.76 0-5-2.24-5-5z" stroke="#000" stroke-width="2" fill="#fff"/><use xlink:href="#g" transform="matrix(1,0,0,1,385,405) translate(17.19999999999999 28.6)"/><path d="M1060 405c0-2.76 2.24-5 5-5h190c2.76 0 5 2.24 5 5v50c0 2.76-2.24 5-5 5h-190c-2.76 0-5-2.24-5-5z" stroke="#000" stroke-width="2" fill="#fff"/><use xlink:href="#h" transform="matrix(1,0,0,1,1065,405) translate(6.275000000000006 28.6)"/><path d="M800 405c0-2.76 2.24-5 5-5h210c2.76 0 5 2.24 5 5v50c0 2.76-2.24 5-5 5H805c-2.76 0-5-2.24-5-5z" stroke="#000" stroke-width="2" fill="#fff"/><use xlink:href="#i" transform="matrix(1,0,0,1,805,405) translate(8.200000000000017 28.6)"/><path d="M570 405c0-2.76 2.24-5 5-5h190c2.76 0 5 2.24 5 5v50c0 2.76-2.24 5-5 5H575c-2.76 0-5-2.24-5-5z" stroke="#000" stroke-width="2" fill="#fff"/><use xlink:href="#j" transform="matrix(1,0,0,1,575,405) translate(5.925000000000011 28.6)"/><path d="M380 565c0-2.76 2.24-5 5-5h130c2.76 0 5 2.24 5 5v50c0 2.76-2.24 5-5 5H385c-2.76 0-5-2.24-5-5z" stroke="#000" stroke-width="2" fill="#fff"/><use xlink:href="#k" transform="matrix(1,0,0,1,385,565) translate(20.1 28.6)"/><path d="M900 565c0-2.76 2.24-5 5-5h130c2.76 0 5 2.24 5 5v50c0 2.76-2.24 5-5 5H905c-2.76 0-5-2.24-5-5z" stroke="#000" stroke-width="2" fill="#fff"/><use xlink:href="#l" transform="matrix(1,0,0,1,905,565) translate(18.799999999999997 28.6)"/><path d="M140 685c0-2.76 2.24-5 5-5h170c2.76 0 5 2.24 5 5v50c0 2.76-2.24 5-5 5H145c-2.76 0-5-2.24-5-5z" stroke="#000" stroke-width="2" fill="#fff"/><use xlink:href="#m" transform="matrix(1,0,0,1,145,685) translate(6.675000000000011 28.6)"/><path d="M340 685c0-2.76 2.24-5 5-5h170c2.76 0 5 2.24 5 5v50c0 2.76-2.24 5-5 5H345c-2.76 0-5-2.24-5-5z" stroke="#000" stroke-width="2" fill="#fff"/><use xlink:href="#n" transform="matrix(1,0,0,1,345,685) translate(8.575000000000003 28.6)"/><path d="M540 685c0-2.76 2.24-5 5-5h170c2.76 0 5 2.24 5 5v50c0 2.76-2.24 5-5 5H545c-2.76 0-5-2.24-5-5z" stroke="#000" stroke-width="2" fill="#fff"/><use xlink:href="#o" transform="matrix(1,0,0,1,545,685) translate(3.6500000000000057 28.6)"/><path d="M740 685c0-2.76 2.24-5 5-5h150c2.76 0 5 2.24 5 5v50c0 2.76-2.24 5-5 5H745c-2.76 0-5-2.24-5-5z" stroke="#000" stroke-width="2" fill="#fff"/><use xlink:href="#p" transform="matrix(1,0,0,1,745,685) translate(5.675000000000011 28.6)"/><path d="M461 621v.24l-.02.23-.02.24-.04.24-.04.24-.06.24-.07.24-.08.24-.1.25-.1.25-.12.26-.14.27-.15.27-.18.3-.2.3-.24.3-.28.33-.3.35-.37.37-.43.4-.5.42-.58.46-.7.5-.83.57-1.02.6-1.26.7-1.58.8-2.04.9-2.68 1.05-3.64 1.26-5.15 1.56-7.77 1.98-12.93 2.72-27.45 4.54-106.62 15.34-12.93 2.72-7.77 1.98-5.16 1.55-3.64 1.25-2.67 1.06-2.04.9-1.6.8-1.25.7-1.02.6-.84.56-.7.5-.6.47-.5.42-.4.4-.37.37-.32.35-.26.33-.24.3-.2.3-.2.3-.15.27-.14.27-.1.26-.12.25-.1.25-.07.24-.05.24-.06.24-.05.24-.04.23v.23l-.03.23v.24" stroke="#000" stroke-width="2" fill="none"/><path d="M461.7 621.72l-1.4-1.44.3-.28h2.86zM253.12 672.37L239.67 679l7-13.27z"/><path d="M254.8 672.66L239.9 680H238l8.42-15.95zm-12.8 4.08l9.45-4.66-4.55-4.67z"/><path d="M461 621l-.2 4.58-.48 3.82-.73 3.33-.96 3.05-1.2 2.97-1.63 3.14-2.6 4.13-8.34 12.08-1.62 3.15-1.2 2.97-.96 3.05-.73 3.33-.5 3.82-.18 4.58" stroke="#000" stroke-width="2" fill="none"/><path d="M462 621.16l-2-.32.15-.84h2.02zM446.5 665.64L439.66 679l-2.34-14.82z"/><path d="M448 664.87L440.28 680h-1.47l-2.67-17.02zm-7.82 10.93l4.8-9.4-6.45-1z"/><path d="M461 621v.44l.04.44.04.43.07.44.08.42.1.43.12.4.14.44.15.43.18.43.2.45.25.45.27.46.3.48.35.5.4.5.44.55.5.55.6.6.68.62.78.67.92.72 1.1.78 1.3.85 1.57.93 1.93 1.05 2.46 1.2 3.18 1.4 4.3 1.66 6.28 2.12 10.74 3.12 50.4 13.16 6.28 2.12 4.3 1.67 3.2 1.4 2.45 1.2 1.95 1.04 1.58.94 1.3.86 1.1.78.9.72.8.67.67.63.58.6.52.55.45.55.4.5.34.5.32.5.27.45.22.45.2.45.2.43.16.43.14.43.12.4.1.44.08.42.06.43.05.42.03.44v.44" stroke="#000" stroke-width="2" fill="none"/><path d="M461.83 620.44l-1.66 1.12-1.06-1.56h2.43zM579.67 679l-11.86-9.2 7.67-5.2z"/><path d="M581 680h-1.68l-13.2-10.24 9.93-6.76zm-11.5-10.13l8.35 6.45-2.95-10.12z"/><path d="M920 685c0-2.76 2.24-5 5-5h130c2.76 0 5 2.24 5 5v50c0 2.76-2.24 5-5 5H925c-2.76 0-5-2.24-5-5z" stroke="#000" stroke-width="2" fill="#fff"/><use xlink:href="#q" transform="matrix(1,0,0,1,925,685) translate(-0.6749999999999972 28.6)"/><path d="M1080 685c0-2.76 2.24-5 5-5h180c2.76 0 5 2.24 5 5v50c0 2.76-2.24 5-5 5h-180c-2.76 0-5-2.24-5-5z" stroke="#000" stroke-width="2" fill="#fff"/><use xlink:href="#r" transform="matrix(1,0,0,1,1085,685) translate(4.325000000000003 28.6)"/><path d="M670 460l-.02.74-.04.72-.08.72-.1.7-.14.7-.16.72-.2.7-.23.72-.27.7-.3.74-.35.74-.38.75-.45.78-.5.8-.58.8-.66.87-.74.9-.84.92-.96 1-1.1 1.03-1.3 1.1-1.5 1.2-1.8 1.3-2.1 1.4-2.58 1.56-3.16 1.74-3.95 1.96-5.08 2.26-6.8 2.7-9.67 3.34-15.44 4.62-99.45 25.78-9.66 3.35-6.82 2.7-5.1 2.25-3.94 1.96-3.16 1.73-2.57 1.54-2.1 1.4-1.8 1.3-1.5 1.2-1.3 1.1-1.1 1.05-.96.98-.84.93-.74.9-.65.86-.56.82-.5.8-.46.77-.4.75-.34.74-.3.73-.27.7-.23.72-.2.7-.16.7-.14.7-.1.72-.08.72-.04.72-.02.74" stroke="#000" stroke-width="2" fill="none"/><path d="M670.92 460.4l-.92-.4h1.1zM472.9 547.73L463 559l1.38-14.94z"/><path d="M474.56 547.36L463.46 560h-1.56l1.6-17.4zm-10.28 8.67l6.96-7.93-6-2.57z"/><path d="M670 460v.56l.05.55.05.56.08.54.1.54.14.55.15.54.18.55.2.56.25.57.28.58.3.6.37.63.4.64.46.66.54.7.6.72.68.76.8.82.9.85 1.08.92 1.25 1 1.48 1.06 1.78 1.18 2.16 1.3 2.65 1.46 3.33 1.64 4.24 1.88 5.57 2.2 7.62 2.65 11 3.3 17.5 4.46 37.2 7.76 104.8 20.17 17.52 4.46 11 3.3 7.6 2.65 5.6 2.2 4.23 1.88 3.32 1.64 2.65 1.46 2.15 1.3 1.78 1.18 1.48 1.07 1.26 1 1.06.93.92.85.8.8.68.77.6.73.52.7.46.65.4.64.36.62.32.6.27.57.24.57.2.57.2.56.15.55.13.56.1.54.08.54.06.55.02.54v.56" stroke="#000" stroke-width="2" fill="none"/><path d="M669.12 460.48l-.26-.48H670zM944.33 559l-10.85-10.36 8.16-4.4z"/><path d="M945.53 560h-1.6l-12.13-11.58 10.58-5.7zm-10.36-11.13l7.63 7.28-1.9-10.37z"/><path d="M970 620v.35l-.03.35-.04.34-.05.34-.06.34-.08.34-.1.35-.1.35-.14.35-.15.36-.17.37-.2.37-.22.38-.25.4-.28.4-.32.44-.38.45-.42.47-.5.5-.56.54-.66.56-.77.62-.9.66-1.1.73-1.33.8-1.63.9-2.05 1-2.62 1.17-3.44 1.36-4.7 1.63-6.87 2.07-11.2 2.85-32.76 6.73-39.57 8.03-11.2 2.85-6.86 2.06-4.7 1.62-3.45 1.36-2.6 1.16-2.06 1-1.63.9-1.32.8-1.1.74-.9.66-.78.62-.66.56-.57.54-.5.5-.42.47-.38.45-.32.43-.3.42-.24.4-.22.38-.2.37-.17.37-.15.36-.13.35-.1.34-.1.34-.1.34-.05.34-.05.34-.04.34-.02.35v.35" stroke="#000" stroke-width="2" fill="none"/><path d="M970.78 620.62L970 620h1.28zM827.5 670.73L815 679l5.26-14.05z"/><path d="M829.2 670.8l-13.9 9.2h-1.74l6.25-16.7zm-12.18 5.67l8.8-5.82-5.1-4.06z"/><path d="M975 621v58" stroke="#000" stroke-width="2" fill="none"/><path d="M976 621h-2v-1h2zM975 679l-4.64-14.27h9.28z"/><path d="M975.73 680h-1.46L969 663.73h12zm-4-14.27l3.27 10.03 3.26-10.03z"/><path d="M975 621v.27l.02.27.03.26.04.27.04.27.06.26.08.27.1.28.1.28.1.28.15.3.15.3.18.3.2.32.24.34.26.35.3.37.35.4.4.4.48.43.54.47.64.5.77.56.9.6 1.13.68 1.37.77 1.72.85 2.2.98 2.9 1.15 3.95 1.36 5.6 1.7 8.53 2.17 14.76 3.1 112.84 18.96 8.53 2.18 5.6 1.7 3.94 1.35 2.9 1.15 2.22.98 1.72.85 1.37.76 1.12.66.92.6.76.56.64.5.55.48.46.43.4.4.34.4.3.36.27.34.23.34.2.3.18.32.16.3.14.3.12.27.1.28.1.28.06.27.07.26.05.27.04.27.02.26.02.27v.27" stroke="#000" stroke-width="2" fill="none"/><path d="M975.73 620.3l-1.46 1.4-1.6-1.7h2.76zM1169.67 679l-13.18-7.17 6.72-6.37z"/><path d="M1171.25 680h-1.84l-14.6-7.95 8.73-8.27zm-13.07-8.4l9.26 5.05-4.53-9.52z"/><path d="M630 100v.45l-.04.44-.04.42-.07.44-.08.43-.1.42-.12.44-.15.44-.17.45-.2.46-.2.48-.26.47-.28.5-.33.5-.37.53-.42.56-.48.57-.55.62-.63.65-.73.68-.86.74-1 .78-1.18.86-1.42.94-1.72 1.03-2.1 1.17-2.66 1.3-3.38 1.52-4.45 1.74-6.07 2.1-8.78 2.64-13.96 3.56-29.63 6.18-83.82 16.14-13.96 3.56-8.78 2.63-6.07 2.1-4.45 1.76-3.38 1.52-2.65 1.3-2.12 1.17-1.72 1.02-1.42.94-1.18.86-1 .8-.85.73-.72.68-.63.65-.55.6-.48.58-.42.56-.37.52-.32.5-.27.5-.25.48-.22.47-.2.45-.16.45-.15.44-.12.44-.1.43-.08.44-.07.44-.04.43-.03.45v.45" stroke="#000" stroke-width="2" fill="none"/><path d="M630.84 100.55L630 100h1.2zM422.68 169.6L411 179l3.92-14.48z"/><path d="M424.38 169.5L411.35 180h-1.66l4.6-17.07zm-11.6 6.8l8.2-6.63-5.46-3.56z"/><path d="M630 100v.42l.03.4.05.42.06.4.08.4.1.42.1.4.14.43.16.4.18.44.2.44.24.45.27.47.32.48.35.5.4.52.45.55.52.58.6.6.7.67.8.7.96.75 1.13.82 1.36.9 1.63 1 2.03 1.1 2.53 1.26 3.24 1.44 4.26 1.7 5.8 2 8.33 2.5 12.96 3.3 24.5 5.14 109.85 20.13 12.96 3.3 8.33 2.5 5.8 2 4.27 1.7 3.24 1.44 2.54 1.25 2.02 1.1 1.65 1 1.35.9 1.13.83.96.75.8.7.7.66.6.6.5.6.47.54.4.52.34.5.32.48.27.47.23.45.2.44.18.43.17.4.14.43.12.4.1.42.08.4.06.4.04.42.02.4v.43" stroke="#000" stroke-width="2" fill="none"/><path d="M629.18 100.57l-.4-.57H630zM864.33 179l-11.9-9.15 7.66-5.24z"/><path d="M865.67 180H864l-13.26-10.2 9.92-6.8zm-11.53-10.1l8.36 6.43-2.98-10.1z"/><path d="M460 305c0-2.76 2.24-5 5-5h380c2.76 0 5 2.24 5 5v10c0 2.76-2.24 5-5 5H465c-2.76 0-5-2.24-5-5z" stroke="#000" stroke-width="2" fill="#fff"/><use xlink:href="#s" transform="matrix(1,0,0,1,465,305) translate(190 14.4)"/><path d="M681.67 321v.42l-.04.42-.04.4-.07.43-.08.4-.1.42-.12.4-.13.43-.16.43-.18.43-.2.44-.25.45-.26.46-.3.5-.36.5-.4.52-.46.55-.53.58-.6.63-.7.66-.83.7-.96.75-1.12.83-1.37.9-1.64 1-2.03 1.1-2.54 1.27-3.27 1.45-4.28 1.7-5.83 2-8.4 2.53-13.14 3.35-25.74 5.4-98.82 18.44-13.15 3.35-8.4 2.52-5.82 2-4.28 1.7-3.26 1.45-2.53 1.26-2.03 1.12-1.65 1-1.38.9-1.13.83-.97.76-.82.7-.7.67-.6.62-.52.57-.46.55-.4.53-.35.5-.3.5-.28.46-.25.46-.2.45-.2.44-.15.43-.13.42-.12.4-.1.42-.08.4-.06.43-.03.4-.03.43v.42" stroke="#000" stroke-width="2" fill="none"/><path d="M682.5 321.56l-1.66-1.12.3-.44h2.42zM468.2 389.8l-11.87 9.2 4.2-14.4z"/><path d="M469.9 389.75L456.67 400H455l4.94-17zm-11.75 6.57l8.34-6.46-5.4-3.66z"/><path d="M681.67 321l.33 12.63.94 11.42 1.7 12.3L695 412.66" stroke="#000" stroke-width="2" fill="none"/><path d="M682.67 320.97l-2 .07-.04-1.04h2z"/><path d="M695 412.67l-7.18-13.17 9.1-1.7z" stroke="#000" stroke-width="2"/><path d="M681.67 321v.45l.03.44.05.43.06.44.1.43.1.44.12.44.15.45.17.45.2.45.2.47.26.48.3.5.3.5.38.54.42.55.48.58.55.6.63.65.73.7.84.73 1 .8 1.2.85 1.4.94 1.72 1.04 2.1 1.15 2.66 1.32 3.38 1.5 4.45 1.76 6.08 2.1 8.8 2.65 14.13 3.6 31.9 6.64 74.1 14.5 14.14 3.6 8.8 2.64 6.1 2.12 4.44 1.76 3.38 1.5 2.64 1.3 2.1 1.16 1.73 1.04 1.4.94 1.2.86 1 .8.84.73.73.7.64.64.56.6.47.6.42.54.37.53.33.52.28.5.25.48.22.47.2.45.17.45.14.45.13.44.1.44.1.43.05.44.05.44.03.45v.45" stroke="#000" stroke-width="2" fill="none"/><path d="M682.5 320.46l-1.67 1.1-1-1.56h2.38zM893.67 399L882 389.57l7.77-5.06z"/><path d="M894.97 400h-1.66l-13-10.52 10.08-6.55zm-11.27-10.34l8.2 6.63-2.74-10.2z"/><path d="M681.67 321v.4l.03.2.03.2.04.2.05.2.06.2.07.22.08.2.1.23.1.23.12.23.14.25.15.26.18.27.22.28.24.3.28.3.33.35.4.36.45.4.54.42.64.47.8.53.95.58 1.2.66 1.53.76 1.98.88 2.64 1.04 3.6 1.25 5.16 1.55 7.74 1.97 12.53 2.64 22.75 3.8 52.33 6.4 296.03 28 22.75 3.8 12.53 2.63 7.74 1.97 5.15 1.55 3.6 1.25 2.64 1.04 1.97.88 1.53.76 1.2.66.97.58.8.53.64.47.55.42.46.4.4.36.32.34.3.3.23.3.22.3.18.25.16.25.15.24.13.22.1.23.1.22.07.2.07.22.06.2.05.2.04.2.03.2.02.2v.4" stroke="#000" stroke-width="2" fill="none"/><path d="M682.33 320.26l-1.33 1.5-1.95-1.76h3zM1160.33 399l-13.72-6.05 6.2-6.9z"/><path d="M1162.07 400h-1.95l-15.17-6.7 8-8.96zm-13.8-7.4l9.65 4.24-5.3-9.1z"/><path d="M681.67 321v.24l-.02.24-.03.24-.03.24-.06.24-.06.24-.07.25-.07.24-.1.26-.1.26-.13.27-.15.28-.16.3-.2.3-.22.3-.25.34-.3.35-.33.36-.38.4-.46.42-.53.46-.63.5-.75.55-.92.6-1.1.67-1.4.76-1.76.87-2.26 1-3 1.2-4.08 1.4-5.8 1.75-8.72 2.22-14.1 2.97-26.1 4.34-71.54 8.67-175.93 19.17-26.1 4.34-14.1 2.97-8.7 2.22-5.82 1.75-4.08 1.4-3 1.2-2.26 1-1.75.87-1.38.76-1.12.68-.9.6-.77.56-.63.5-.53.46-.45.42-.4.4-.32.37-.3.36-.24.33-.22.3-.2.3-.16.3-.15.27-.12.27-.1.26-.1.26-.08.25-.07.26-.06.24-.05.24-.04.24v.24l-.03.24v.24" stroke="#000" stroke-width="2" fill="none"/><path d="M682.38 321.7l-1.42-1.4.3-.3h2.8zM299 392.14L285.68 399l6.76-13.4z"/><path d="M300.7 392.4l-14.8 7.6h-1.86l8.12-16.07zm-12.75 4.3l9.38-4.82-4.63-4.6z"/><path d="M410 260v.2l.02.1v.1l.03.1.03.12.03.1.04.1.04.12.05.1.06.13.05.12.07.1.08.14.1.14.1.15.13.15.15.16.17.17.2.2.23.2.28.22.33.24.4.27.5.3.6.34.8.4 1.02.44 1.35.54 1.85.65 2.65.78 3.97 1 6.44 1.37 11.67 1.94 26.9 3.3 151.2 14.3 11.67 1.95 6.44 1.36 3.97 1.02 2.65.8 1.85.64 1.35.53 1.02.44.8.4.6.33.5.3.4.27.34.24.28.22.23.2.2.2.17.16.15.16.12.15.1.15.1.14.08.13.07.1.06.13.07.12.05.1.04.12.03.1.02.1.03.12.02.1v.1l.02.1v.2" fill="none"/><path d="M410 260v.2l.02.1v.1l.03.1.03.12.03.1.04.1.04.12.05.1.06.13.05.12.07.1.08.14.1.14.1.15.13.15.15.16.17.17.2.2.23.2.28.22.33.24.4.27.5.3.6.34.8.4 1.02.44 1.35.54 1.2.42m10.16 2.64l3.55.75 11.67 1.94 5.5.66m10.4 1.28l11 1.35 9.87.92m10.45 1l20.9 1.97m10.44.98l20.9 1.98m10.46 1l20.9 1.97m10.44 1l20.9 1.97m10.45 1l5.5.5 11.67 1.95 3.55.75m10.15 2.64l1.2.42 1.36.53 1.02.44.8.4.6.33.5.3.4.27.34.24.28.22.23.2.2.2.17.16.15.16.12.15.1.15.1.14.08.13.07.1.06.13.07.12.05.1.04.12.03.1.02.1.03.12.02.1v.1l.02.1v.2" stroke="#000" stroke-width="2" fill="none"/><path d="M409.5 260.87L408 260h2zM655 300l-14.67-3.1 4.62-8.04z"/><path d="M656.35 300h-6.18l-11.4-2.4 6-10.43zm-14.47-3.8l10.32 2.18-7.07-7.83z"/><path d="M880 260v.22l-.02.1-.02.12-.02.12-.03.1-.02.12-.04.12-.04.12-.05.12-.06.13-.08.13-.08.13-.1.14-.1.15-.1.16-.14.16-.16.17-.18.2-.2.2-.27.22-.3.23-.36.26-.43.3-.52.32-.66.36-.84.42-1.08.48-1.43.56-1.97.68-2.8.84-4.18 1.07-6.78 1.43-12.38 2.06-29.92 3.65-124.2 12.5-12.38 2.07-6.78 1.43-4.2 1.07-2.78.84-1.97.68-1.43.56-1.08.48-.84.42-.66.36-.53.32-.44.3-.36.25-.3.23-.25.22-.2.2-.2.2-.15.16-.13.16-.12.16-.1.15-.1.14-.07.13-.07.13-.05.13-.05.12-.04.12-.04.12-.03.1-.04.12-.02.12-.02.1v.12l-.02.1v.12" fill="none"/><path d="M880 260v.22l-.02.1-.02.12-.02.12-.03.1-.02.12-.04.12-.04.12-.05.12-.06.13-.08.13-.08.13-.1.14-.1.15-.1.16-.14.16-.16.17-.18.2-.2.2-.27.22-.3.23-.36.26-.43.3-.52.32-.66.36-.84.42-1.08.48-1.26.5m-9.3 2.7l-6.6 1.38-12.38 2.06h-.06m-9.6 1.18l-19.22 2.35m-9.63 1l-19.26 1.93m-9.63.97l-19.26 1.94m-9.62.96l-19.26 1.94m-9.63.97l-19.27 1.94m-9.63.98h-.06l-12.38 2.06-6.6 1.4m-9.3 2.7l-1.26.48-1.08.48-.84.42-.66.36-.53.32-.44.3-.36.25-.3.23-.25.22-.2.2-.2.2-.15.16-.13.16-.12.16-.1.15-.1.14-.07.13-.07.13-.05.13-.05.12-.04.12-.04.12-.03.1-.04.12-.02.12-.02.1v.12l-.02.1v.12" stroke="#000" stroke-width="2" fill="none"/><path d="M880.52 260.86L880 260h1.93zM669.6 296.58L655 300l9.8-11.35z"/><path d="M671.17 297.24L659.4 300h-5.72l11.27-13.04zm-13.4 1.1l10.27-2.42-3.37-5.57z"/><defs><path d="M96-169c-40 0-48 33-48 73s9 75 48 75c24 0 41-14 43-38l32 2c-6 37-31 61-74 61-59 0-76-41-82-99-10-93 101-131 147-64 4 7 5 14 7 22l-32 3c-4-21-16-35-41-35" id="t"/><path d="M100-194c62-1 85 37 85 99 1 63-27 99-86 99S16-35 15-95c0-66 28-99 85-99zM99-20c44 1 53-31 53-75 0-43-8-75-51-75s-53 32-53 75 10 74 51 75" id="u"/><path d="M210-169c-67 3-38 105-44 169h-31v-121c0-29-5-50-35-48C34-165 62-65 56 0H25l-1-190h30c1 10-1 24 2 32 10-44 99-50 107 0 11-21 27-35 58-36 85-2 47 119 55 194h-31v-121c0-29-5-49-35-48" id="v"/><path d="M115-194c55 1 70 41 70 98S169 2 115 4C84 4 66-9 55-30l1 105H24l-1-265h31l2 30c10-21 28-34 59-34zm-8 174c40 0 45-34 45-75s-6-73-45-74c-42 0-51 32-51 76 0 43 10 73 51 73" id="w"/><path d="M212-179c-10-28-35-45-73-45-59 0-87 40-87 99 0 60 29 101 89 101 43 0 62-24 78-52l27 14C228-24 195 4 139 4 59 4 22-46 18-125c-6-104 99-153 187-111 19 9 31 26 39 46" id="x"/><path d="M117-194c89-4 53 116 60 194h-32v-121c0-31-8-49-39-48C34-167 62-67 57 0H25l-1-190h30c1 10-1 24 2 32 11-22 29-35 61-36" id="y"/><path d="M59-47c-2 24 18 29 38 22v24C64 9 27 4 27-40v-127H5v-23h24l9-43h21v43h35v23H59v120" id="z"/><path d="M141-36C126-15 110 5 73 4 37 3 15-17 15-53c-1-64 63-63 125-63 3-35-9-54-41-54-24 1-41 7-42 31l-33-3c5-37 33-52 76-52 45 0 72 20 72 64v82c-1 20 7 32 28 27v20c-31 9-61-2-59-35zM48-53c0 20 12 33 32 33 41-3 63-29 60-74-43 2-92-5-92 41" id="A"/><path d="M24-231v-30h32v30H24zM24 0v-190h32V0H24" id="B"/><path d="M100-194c63 0 86 42 84 106H49c0 40 14 67 53 68 26 1 43-12 49-29l28 8c-11 28-37 45-77 45C44 4 14-33 15-96c1-61 26-98 85-98zm52 81c6-60-76-77-97-28-3 7-6 17-6 28h103" id="C"/><path d="M114-163C36-179 61-72 57 0H25l-1-190h30c1 12-1 29 2 39 6-27 23-49 58-41v29" id="D"/><path d="M24 0v-261h32V0H24" id="E"/><g id="a"><use transform="matrix(0.05,0,0,0.05,0,0)" xlink:href="#t"/><use transform="matrix(0.05,0,0,0.05,9,0)" xlink:href="#u"/><use transform="matrix(0.05,0,0,0.05,19,0)" xlink:href="#v"/><use transform="matrix(0.05,0,0,0.05,33.95,0)" xlink:href="#w"/><use transform="matrix(0.05,0,0,0.05,43.95,0)" xlink:href="#x"/><use transform="matrix(0.05,0,0,0.05,56.900000000000006,0)" xlink:href="#u"/><use transform="matrix(0.05,0,0,0.05,66.9,0)" xlink:href="#y"/><use transform="matrix(0.05,0,0,0.05,76.9,0)" xlink:href="#z"/><use transform="matrix(0.05,0,0,0.05,81.9,0)" xlink:href="#A"/><use transform="matrix(0.05,0,0,0.05,91.9,0)" xlink:href="#B"/><use transform="matrix(0.05,0,0,0.05,95.85000000000001,0)" xlink:href="#y"/><use transform="matrix(0.05,0,0,0.05,105.85000000000001,0)" xlink:href="#C"/><use transform="matrix(0.05,0,0,0.05,115.85000000000001,0)" xlink:href="#D"/><use transform="matrix(0.05,0,0,0.05,121.80000000000001,0)" xlink:href="#x"/><use transform="matrix(0.05,0,0,0.05,134.75,0)" xlink:href="#u"/><use transform="matrix(0.05,0,0,0.05,144.75,0)" xlink:href="#y"/><use transform="matrix(0.05,0,0,0.05,154.75,0)" xlink:href="#z"/><use transform="matrix(0.05,0,0,0.05,159.75,0)" xlink:href="#D"/><use transform="matrix(0.05,0,0,0.05,165.7,0)" xlink:href="#u"/><use transform="matrix(0.05,0,0,0.05,175.7,0)" xlink:href="#E"/><use transform="matrix(0.05,0,0,0.05,179.64999999999998,0)" xlink:href="#E"/><use transform="matrix(0.05,0,0,0.05,183.59999999999997,0)" xlink:href="#C"/><use transform="matrix(0.05,0,0,0.05,193.59999999999997,0)" xlink:href="#D"/></g><path d="M101-234c-31-9-42 10-38 44h38v23H63V0H32v-167H5v-23h27c-7-52 17-82 69-68v24" id="F"/><path d="M185-189c-5-48-123-54-124 2 14 75 158 14 163 119 3 78-121 87-175 55-17-10-28-26-33-46l33-7c5 56 141 63 141-1 0-78-155-14-162-118-5-82 145-84 179-34 5 7 8 16 11 25" id="G"/><g id="b"><use transform="matrix(0.05,0,0,0.05,0,0)" xlink:href="#F"/><use transform="matrix(0.05,0,0,0.05,5,0)" xlink:href="#B"/><use transform="matrix(0.05,0,0,0.05,8.95,0)" xlink:href="#E"/><use transform="matrix(0.05,0,0,0.05,12.899999999999999,0)" xlink:href="#C"/><use transform="matrix(0.05,0,0,0.05,22.9,0)" xlink:href="#G"/><use transform="matrix(0.05,0,0,0.05,34.9,0)" xlink:href="#C"/><use transform="matrix(0.05,0,0,0.05,44.9,0)" xlink:href="#E"/><use transform="matrix(0.05,0,0,0.05,48.85,0)" xlink:href="#C"/><use transform="matrix(0.05,0,0,0.05,58.85,0)" xlink:href="#t"/><use transform="matrix(0.05,0,0,0.05,67.85,0)" xlink:href="#z"/><use transform="matrix(0.05,0,0,0.05,72.85,0)" xlink:href="#u"/><use transform="matrix(0.05,0,0,0.05,82.85,0)" xlink:href="#D"/><use transform="matrix(0.05,0,0,0.05,88.8,0)" xlink:href="#x"/><use transform="matrix(0.05,0,0,0.05,101.75,0)" xlink:href="#u"/><use transform="matrix(0.05,0,0,0.05,111.75,0)" xlink:href="#y"/><use transform="matrix(0.05,0,0,0.05,121.75,0)" xlink:href="#z"/><use transform="matrix(0.05,0,0,0.05,126.75,0)" xlink:href="#D"/><use transform="matrix(0.05,0,0,0.05,132.7,0)" xlink:href="#u"/><use transform="matrix(0.05,0,0,0.05,142.7,0)" xlink:href="#E"/><use transform="matrix(0.05,0,0,0.05,146.64999999999998,0)" xlink:href="#E"/><use transform="matrix(0.05,0,0,0.05,150.59999999999997,0)" xlink:href="#C"/><use transform="matrix(0.05,0,0,0.05,160.59999999999997,0)" xlink:href="#D"/></g><path d="M30-248c118-7 216 8 213 122C240-48 200 0 122 0H30v-248zM63-27c89 8 146-16 146-99s-60-101-146-95v194" id="H"/><g id="c"><use transform="matrix(0.05,0,0,0.05,0,0)" xlink:href="#F"/><use transform="matrix(0.05,0,0,0.05,5,0)" xlink:href="#B"/><use transform="matrix(0.05,0,0,0.05,8.95,0)" xlink:href="#E"/><use transform="matrix(0.05,0,0,0.05,12.899999999999999,0)" xlink:href="#C"/><use transform="matrix(0.05,0,0,0.05,22.9,0)" xlink:href="#H"/><use transform="matrix(0.05,0,0,0.05,35.85,0)" xlink:href="#D"/><use transform="matrix(0.05,0,0,0.05,41.800000000000004,0)" xlink:href="#u"/><use transform="matrix(0.05,0,0,0.05,51.800000000000004,0)" xlink:href="#w"/><use transform="matrix(0.05,0,0,0.05,61.800000000000004,0)" xlink:href="#x"/><use transform="matrix(0.05,0,0,0.05,74.75,0)" xlink:href="#u"/><use transform="matrix(0.05,0,0,0.05,84.75,0)" xlink:href="#y"/><use transform="matrix(0.05,0,0,0.05,94.75,0)" xlink:href="#z"/><use transform="matrix(0.05,0,0,0.05,99.75,0)" xlink:href="#D"/><use transform="matrix(0.05,0,0,0.05,105.7,0)" xlink:href="#u"/><use transform="matrix(0.05,0,0,0.05,115.7,0)" xlink:href="#E"/><use transform="matrix(0.05,0,0,0.05,119.65,0)" xlink:href="#E"/><use transform="matrix(0.05,0,0,0.05,123.60000000000001,0)" xlink:href="#C"/><use transform="matrix(0.05,0,0,0.05,133.60000000000002,0)" xlink:href="#D"/></g><path d="M177-190C167-65 218 103 67 71c-23-6-38-20-44-43l32-5c15 47 100 32 89-28v-30C133-14 115 1 83 1 29 1 15-40 15-95c0-56 16-97 71-98 29-1 48 16 59 35 1-10 0-23 2-32h30zM94-22c36 0 50-32 50-73 0-42-14-75-50-75-39 0-46 34-46 75s6 73 46 73" id="I"/><g id="d"><use transform="matrix(0.05,0,0,0.05,0,0)" xlink:href="#F"/><use transform="matrix(0.05,0,0,0.05,5,0)" xlink:href="#B"/><use transform="matrix(0.05,0,0,0.05,8.95,0)" xlink:href="#E"/><use transform="matrix(0.05,0,0,0.05,12.899999999999999,0)" xlink:href="#C"/><use transform="matrix(0.05,0,0,0.05,22.9,0)" xlink:href="#H"/><use transform="matrix(0.05,0,0,0.05,35.85,0)" xlink:href="#D"/><use transform="matrix(0.05,0,0,0.05,41.800000000000004,0)" xlink:href="#A"/><use transform="matrix(0.05,0,0,0.05,51.800000000000004,0)" xlink:href="#I"/><use transform="matrix(0.05,0,0,0.05,61.800000000000004,0)" xlink:href="#x"/><use transform="matrix(0.05,0,0,0.05,74.75,0)" xlink:href="#u"/><use transform="matrix(0.05,0,0,0.05,84.75,0)" xlink:href="#y"/><use transform="matrix(0.05,0,0,0.05,94.75,0)" xlink:href="#z"/><use transform="matrix(0.05,0,0,0.05,99.75,0)" xlink:href="#D"/><use transform="matrix(0.05,0,0,0.05,105.7,0)" xlink:href="#u"/><use transform="matrix(0.05,0,0,0.05,115.7,0)" xlink:href="#E"/><use transform="matrix(0.05,0,0,0.05,119.65,0)" xlink:href="#E"/><use transform="matrix(0.05,0,0,0.05,123.60000000000001,0)" xlink:href="#C"/><use transform="matrix(0.05,0,0,0.05,133.60000000000002,0)" xlink:href="#D"/></g><path d="M84 4C-5 8 30-112 23-190h32v120c0 31 7 50 39 49 72-2 45-101 50-169h31l1 190h-30c-1-10 1-25-2-33-11 22-28 36-60 37" id="J"/><path d="M85-194c31 0 48 13 60 33l-1-100h32l1 261h-30c-2-10 0-23-3-31C134-8 116 4 85 4 32 4 16-35 15-94c0-66 23-100 70-100zm9 24c-40 0-46 34-46 75 0 40 6 74 45 74 42 0 51-32 51-76 0-42-9-74-50-73" id="K"/><g id="e"><use transform="matrix(0.05,0,0,0.05,0,0)" xlink:href="#J"/><use transform="matrix(0.05,0,0,0.05,10,0)" xlink:href="#w"/><use transform="matrix(0.05,0,0,0.05,20,0)" xlink:href="#E"/><use transform="matrix(0.05,0,0,0.05,23.95,0)" xlink:href="#u"/><use transform="matrix(0.05,0,0,0.05,33.95,0)" xlink:href="#A"/><use transform="matrix(0.05,0,0,0.05,43.95,0)" xlink:href="#K"/><use transform="matrix(0.05,0,0,0.05,53.95,0)" xlink:href="#x"/><use transform="matrix(0.05,0,0,0.05,66.9,0)" xlink:href="#u"/><use transform="matrix(0.05,0,0,0.05,76.9,0)" xlink:href="#y"/><use transform="matrix(0.05,0,0,0.05,86.9,0)" xlink:href="#z"/><use transform="matrix(0.05,0,0,0.05,91.9,0)" xlink:href="#D"/><use transform="matrix(0.05,0,0,0.05,97.85000000000001,0)" xlink:href="#u"/><use transform="matrix(0.05,0,0,0.05,107.85000000000001,0)" xlink:href="#E"/><use transform="matrix(0.05,0,0,0.05,111.80000000000001,0)" xlink:href="#E"/><use transform="matrix(0.05,0,0,0.05,115.75,0)" xlink:href="#C"/><use transform="matrix(0.05,0,0,0.05,125.75,0)" xlink:href="#D"/></g><path d="M135-143c-3-34-86-38-87 0 15 53 115 12 119 90S17 21 10-45l28-5c4 36 97 45 98 0-10-56-113-15-118-90-4-57 82-63 122-42 12 7 21 19 24 35" id="L"/><g id="f"><use transform="matrix(0.05,0,0,0.05,0,0)" xlink:href="#w"/><use transform="matrix(0.05,0,0,0.05,10,0)" xlink:href="#D"/><use transform="matrix(0.05,0,0,0.05,15.949999999999998,0)" xlink:href="#u"/><use transform="matrix(0.05,0,0,0.05,25.950000000000003,0)" xlink:href="#I"/><use transform="matrix(0.05,0,0,0.05,35.95,0)" xlink:href="#D"/><use transform="matrix(0.05,0,0,0.05,41.900000000000006,0)" xlink:href="#C"/><use transform="matrix(0.05,0,0,0.05,51.900000000000006,0)" xlink:href="#L"/><use transform="matrix(0.05,0,0,0.05,60.900000000000006,0)" xlink:href="#L"/><use transform="matrix(0.05,0,0,0.05,69.9,0)" xlink:href="#x"/><use transform="matrix(0.05,0,0,0.05,82.85000000000001,0)" xlink:href="#u"/><use transform="matrix(0.05,0,0,0.05,92.85000000000001,0)" xlink:href="#y"/><use transform="matrix(0.05,0,0,0.05,102.85000000000001,0)" xlink:href="#z"/><use transform="matrix(0.05,0,0,0.05,107.85000000000001,0)" xlink:href="#D"/><use transform="matrix(0.05,0,0,0.05,113.80000000000001,0)" xlink:href="#u"/><use transform="matrix(0.05,0,0,0.05,123.80000000000001,0)" xlink:href="#E"/><use transform="matrix(0.05,0,0,0.05,127.75,0)" xlink:href="#E"/><use transform="matrix(0.05,0,0,0.05,131.70000000000002,0)" xlink:href="#C"/><use transform="matrix(0.05,0,0,0.05,141.70000000000002,0)" xlink:href="#D"/></g><g id="g"><use transform="matrix(0.05,0,0,0.05,0,0)" xlink:href="#C"/><use transform="matrix(0.05,0,0,0.05,10,0)" xlink:href="#D"/><use transform="matrix(0.05,0,0,0.05,15.949999999999998,0)" xlink:href="#D"/><use transform="matrix(0.05,0,0,0.05,21.9,0)" xlink:href="#u"/><use transform="matrix(0.05,0,0,0.05,31.899999999999995,0)" xlink:href="#D"/><use transform="matrix(0.05,0,0,0.05,37.85,0)" xlink:href="#x"/><use transform="matrix(0.05,0,0,0.05,50.800000000000004,0)" xlink:href="#u"/><use transform="matrix(0.05,0,0,0.05,60.800000000000004,0)" xlink:href="#y"/><use transform="matrix(0.05,0,0,0.05,70.80000000000001,0)" xlink:href="#z"/><use transform="matrix(0.05,0,0,0.05,75.80000000000001,0)" xlink:href="#D"/><use transform="matrix(0.05,0,0,0.05,81.75000000000001,0)" xlink:href="#u"/><use transform="matrix(0.05,0,0,0.05,91.75000000000001,0)" xlink:href="#E"/><use transform="matrix(0.05,0,0,0.05,95.70000000000002,0)" xlink:href="#E"/><use transform="matrix(0.05,0,0,0.05,99.65000000000002,0)" xlink:href="#C"/><use transform="matrix(0.05,0,0,0.05,109.65000000000003,0)" xlink:href="#D"/></g><path d="M108 0H70L1-190h34L89-25l56-165h34" id="M"/><path d="M206 0h-36l-40-164L89 0H53L-1-190h32L70-26l43-164h34l41 164 42-164h31" id="N"/><path d="M63-220v92h138v28H63V0H30v-248h175v28H63" id="O"/><g id="h"><use transform="matrix(0.05,0,0,0.05,0,0)" xlink:href="#w"/><use transform="matrix(0.05,0,0,0.05,10,0)" xlink:href="#D"/><use transform="matrix(0.05,0,0,0.05,15.949999999999998,0)" xlink:href="#C"/><use transform="matrix(0.05,0,0,0.05,25.950000000000003,0)" xlink:href="#M"/><use transform="matrix(0.05,0,0,0.05,34.95,0)" xlink:href="#B"/><use transform="matrix(0.05,0,0,0.05,38.900000000000006,0)" xlink:href="#C"/><use transform="matrix(0.05,0,0,0.05,48.900000000000006,0)" xlink:href="#N"/><use transform="matrix(0.05,0,0,0.05,61.85,0)" xlink:href="#O"/><use transform="matrix(0.05,0,0,0.05,72.80000000000001,0)" xlink:href="#B"/><use transform="matrix(0.05,0,0,0.05,76.75000000000001,0)" xlink:href="#E"/><use transform="matrix(0.05,0,0,0.05,80.70000000000002,0)" xlink:href="#C"/><use transform="matrix(0.05,0,0,0.05,90.70000000000002,0)" xlink:href="#L"/><use transform="matrix(0.05,0,0,0.05,99.70000000000002,0)" xlink:href="#x"/><use transform="matrix(0.05,0,0,0.05,112.65000000000003,0)" xlink:href="#u"/><use transform="matrix(0.05,0,0,0.05,122.65000000000003,0)" xlink:href="#y"/><use transform="matrix(0.05,0,0,0.05,132.65000000000003,0)" xlink:href="#z"/><use transform="matrix(0.05,0,0,0.05,137.65000000000003,0)" xlink:href="#D"/><use transform="matrix(0.05,0,0,0.05,143.60000000000002,0)" xlink:href="#u"/><use transform="matrix(0.05,0,0,0.05,153.60000000000002,0)" xlink:href="#E"/><use transform="matrix(0.05,0,0,0.05,157.55,0)" xlink:href="#E"/><use transform="matrix(0.05,0,0,0.05,161.5,0)" xlink:href="#C"/><use transform="matrix(0.05,0,0,0.05,171.5,0)" xlink:href="#D"/></g><path d="M127-220V0H93v-220H8v-28h204v28h-85" id="P"/><path d="M106-169C34-169 62-67 57 0H25v-261h32l-1 103c12-21 28-36 61-36 89 0 53 116 60 194h-32v-121c2-32-8-49-39-48" id="Q"/><path d="M115-194c53 0 69 39 70 98 0 66-23 100-70 100C84 3 66-7 56-30L54 0H23l1-261h32v101c10-23 28-34 59-34zm-8 174c40 0 45-34 45-75 0-40-5-75-45-74-42 0-51 32-51 76 0 43 10 73 51 73" id="R"/><path d="M143 4C61 4 22-44 18-125c-5-107 100-154 193-111 17 8 29 25 37 43l-32 9c-13-25-37-40-76-40-61 0-88 39-88 99 0 61 29 100 91 101 35 0 62-11 79-27v-45h-74v-28h105v86C228-13 192 4 143 4" id="S"/><g id="i"><use transform="matrix(0.05,0,0,0.05,0,0)" xlink:href="#B"/><use transform="matrix(0.05,0,0,0.05,3.95,0)" xlink:href="#v"/><use transform="matrix(0.05,0,0,0.05,18.900000000000002,0)" xlink:href="#I"/><use transform="matrix(0.05,0,0,0.05,28.900000000000002,0)" xlink:href="#P"/><use transform="matrix(0.05,0,0,0.05,39.85,0)" xlink:href="#Q"/><use transform="matrix(0.05,0,0,0.05,49.85,0)" xlink:href="#J"/><use transform="matrix(0.05,0,0,0.05,59.85,0)" xlink:href="#v"/><use transform="matrix(0.05,0,0,0.05,74.8,0)" xlink:href="#R"/><use transform="matrix(0.05,0,0,0.05,84.8,0)" xlink:href="#y"/><use transform="matrix(0.05,0,0,0.05,94.8,0)" xlink:href="#A"/><use transform="matrix(0.05,0,0,0.05,104.80000000000001,0)" xlink:href="#B"/><use transform="matrix(0.05,0,0,0.05,108.75,0)" xlink:href="#E"/><use transform="matrix(0.05,0,0,0.05,112.7,0)" xlink:href="#S"/><use transform="matrix(0.05,0,0,0.05,126.7,0)" xlink:href="#C"/><use transform="matrix(0.05,0,0,0.05,136.7,0)" xlink:href="#y"/><use transform="matrix(0.05,0,0,0.05,146.7,0)" xlink:href="#C"/><use transform="matrix(0.05,0,0,0.05,156.7,0)" xlink:href="#D"/><use transform="matrix(0.05,0,0,0.05,162.64999999999998,0)" xlink:href="#A"/><use transform="matrix(0.05,0,0,0.05,172.64999999999998,0)" xlink:href="#z"/><use transform="matrix(0.05,0,0,0.05,177.64999999999998,0)" xlink:href="#u"/><use transform="matrix(0.05,0,0,0.05,187.64999999999998,0)" xlink:href="#D"/></g><path d="M137 0h-34L2-248h35l83 218 83-218h36" id="T"/><g id="j"><use transform="matrix(0.05,0,0,0.05,0,0)" xlink:href="#F"/><use transform="matrix(0.05,0,0,0.05,5,0)" xlink:href="#B"/><use transform="matrix(0.05,0,0,0.05,8.95,0)" xlink:href="#E"/><use transform="matrix(0.05,0,0,0.05,12.899999999999999,0)" xlink:href="#C"/><use transform="matrix(0.05,0,0,0.05,22.9,0)" xlink:href="#T"/><use transform="matrix(0.05,0,0,0.05,33.55,0)" xlink:href="#A"/><use transform="matrix(0.05,0,0,0.05,43.55,0)" xlink:href="#E"/><use transform="matrix(0.05,0,0,0.05,47.5,0)" xlink:href="#B"/><use transform="matrix(0.05,0,0,0.05,51.45,0)" xlink:href="#K"/><use transform="matrix(0.05,0,0,0.05,61.45,0)" xlink:href="#A"/><use transform="matrix(0.05,0,0,0.05,71.45,0)" xlink:href="#z"/><use transform="matrix(0.05,0,0,0.05,76.45,0)" xlink:href="#B"/><use transform="matrix(0.05,0,0,0.05,80.4,0)" xlink:href="#u"/><use transform="matrix(0.05,0,0,0.05,90.4,0)" xlink:href="#y"/><use transform="matrix(0.05,0,0,0.05,100.4,0)" xlink:href="#x"/><use transform="matrix(0.05,0,0,0.05,113.35000000000001,0)" xlink:href="#u"/><use transform="matrix(0.05,0,0,0.05,123.35000000000001,0)" xlink:href="#y"/><use transform="matrix(0.05,0,0,0.05,133.35000000000002,0)" xlink:href="#z"/><use transform="matrix(0.05,0,0,0.05,138.35000000000002,0)" xlink:href="#D"/><use transform="matrix(0.05,0,0,0.05,144.3,0)" xlink:href="#u"/><use transform="matrix(0.05,0,0,0.05,154.3,0)" xlink:href="#E"/><use transform="matrix(0.05,0,0,0.05,158.25,0)" xlink:href="#E"/><use transform="matrix(0.05,0,0,0.05,162.2,0)" xlink:href="#C"/><use transform="matrix(0.05,0,0,0.05,172.2,0)" xlink:href="#D"/></g><path d="M143 0L79-87 56-68V0H24v-261h32v163l83-92h37l-77 82L181 0h-38" id="U"/><g id="k"><use transform="matrix(0.05,0,0,0.05,0,0)" xlink:href="#F"/><use transform="matrix(0.05,0,0,0.05,5,0)" xlink:href="#B"/><use transform="matrix(0.05,0,0,0.05,8.95,0)" xlink:href="#E"/><use transform="matrix(0.05,0,0,0.05,12.899999999999999,0)" xlink:href="#C"/><use transform="matrix(0.05,0,0,0.05,22.9,0)" xlink:href="#x"/><use transform="matrix(0.05,0,0,0.05,35.85,0)" xlink:href="#Q"/><use transform="matrix(0.05,0,0,0.05,45.85,0)" xlink:href="#C"/><use transform="matrix(0.05,0,0,0.05,55.85,0)" xlink:href="#t"/><use transform="matrix(0.05,0,0,0.05,64.85,0)" xlink:href="#U"/><use transform="matrix(0.05,0,0,0.05,73.85,0)" xlink:href="#C"/><use transform="matrix(0.05,0,0,0.05,83.85,0)" xlink:href="#D"/></g><g id="l"><use transform="matrix(0.05,0,0,0.05,0,0)" xlink:href="#F"/><use transform="matrix(0.05,0,0,0.05,5,0)" xlink:href="#B"/><use transform="matrix(0.05,0,0,0.05,8.95,0)" xlink:href="#E"/><use transform="matrix(0.05,0,0,0.05,12.899999999999999,0)" xlink:href="#C"/><use transform="matrix(0.05,0,0,0.05,22.9,0)" xlink:href="#T"/><use transform="matrix(0.05,0,0,0.05,33.55,0)" xlink:href="#A"/><use transform="matrix(0.05,0,0,0.05,43.55,0)" xlink:href="#E"/><use transform="matrix(0.05,0,0,0.05,47.5,0)" xlink:href="#B"/><use transform="matrix(0.05,0,0,0.05,51.45,0)" xlink:href="#K"/><use transform="matrix(0.05,0,0,0.05,61.45,0)" xlink:href="#A"/><use transform="matrix(0.05,0,0,0.05,71.45,0)" xlink:href="#z"/><use transform="matrix(0.05,0,0,0.05,76.45,0)" xlink:href="#u"/><use transform="matrix(0.05,0,0,0.05,86.45,0)" xlink:href="#D"/></g><path d="M9 0v-24l116-142H16v-24h144v24L44-24h123V0H9" id="V"/><path d="M232-93c-1 65-40 97-104 97C67 4 28-28 28-90v-158h33c8 89-33 224 67 224 102 0 64-133 71-224h33v155" id="W"/><g id="m"><use transform="matrix(0.05,0,0,0.05,0,0)" xlink:href="#F"/><use transform="matrix(0.05,0,0,0.05,5,0)" xlink:href="#B"/><use transform="matrix(0.05,0,0,0.05,8.95,0)" xlink:href="#E"/><use transform="matrix(0.05,0,0,0.05,12.899999999999999,0)" xlink:href="#C"/><use transform="matrix(0.05,0,0,0.05,22.9,0)" xlink:href="#G"/><use transform="matrix(0.05,0,0,0.05,34.9,0)" xlink:href="#B"/><use transform="matrix(0.05,0,0,0.05,38.85,0)" xlink:href="#V"/><use transform="matrix(0.05,0,0,0.05,47.85,0)" xlink:href="#C"/><use transform="matrix(0.05,0,0,0.05,57.85,0)" xlink:href="#W"/><use transform="matrix(0.05,0,0,0.05,70.8,0)" xlink:href="#y"/><use transform="matrix(0.05,0,0,0.05,80.8,0)" xlink:href="#B"/><use transform="matrix(0.05,0,0,0.05,84.75,0)" xlink:href="#z"/><use transform="matrix(0.05,0,0,0.05,89.75,0)" xlink:href="#x"/><use transform="matrix(0.05,0,0,0.05,102.7,0)" xlink:href="#Q"/><use transform="matrix(0.05,0,0,0.05,112.7,0)" xlink:href="#C"/><use transform="matrix(0.05,0,0,0.05,122.7,0)" xlink:href="#t"/><use transform="matrix(0.05,0,0,0.05,131.7,0)" xlink:href="#U"/><use transform="matrix(0.05,0,0,0.05,140.7,0)" xlink:href="#C"/><use transform="matrix(0.05,0,0,0.05,150.7,0)" xlink:href="#D"/></g><path d="M141 0L90-78 38 0H4l68-98-65-92h35l48 74 47-74h35l-64 92 68 98h-35" id="X"/><g id="n"><use transform="matrix(0.05,0,0,0.05,0,0)" xlink:href="#C"/><use transform="matrix(0.05,0,0,0.05,10,0)" xlink:href="#X"/><use transform="matrix(0.05,0,0,0.05,19,0)" xlink:href="#z"/><use transform="matrix(0.05,0,0,0.05,24,0)" xlink:href="#C"/><use transform="matrix(0.05,0,0,0.05,34,0)" xlink:href="#y"/><use transform="matrix(0.05,0,0,0.05,44,0)" xlink:href="#L"/><use transform="matrix(0.05,0,0,0.05,53,0)" xlink:href="#B"/><use transform="matrix(0.05,0,0,0.05,56.95,0)" xlink:href="#u"/><use transform="matrix(0.05,0,0,0.05,66.95,0)" xlink:href="#y"/><use transform="matrix(0.05,0,0,0.05,76.95,0)" xlink:href="#L"/><use transform="matrix(0.05,0,0,0.05,85.95,0)" xlink:href="#x"/><use transform="matrix(0.05,0,0,0.05,98.9,0)" xlink:href="#Q"/><use transform="matrix(0.05,0,0,0.05,108.9,0)" xlink:href="#C"/><use transform="matrix(0.05,0,0,0.05,118.9,0)" xlink:href="#t"/><use transform="matrix(0.05,0,0,0.05,127.9,0)" xlink:href="#U"/><use transform="matrix(0.05,0,0,0.05,136.9,0)" xlink:href="#C"/><use transform="matrix(0.05,0,0,0.05,146.9,0)" xlink:href="#D"/></g><g id="o"><use transform="matrix(0.05,0,0,0.05,0,0)" xlink:href="#A"/><use transform="matrix(0.05,0,0,0.05,10,0)" xlink:href="#E"/><use transform="matrix(0.05,0,0,0.05,13.949999999999998,0)" xlink:href="#E"/><use transform="matrix(0.05,0,0,0.05,17.9,0)" xlink:href="#u"/><use transform="matrix(0.05,0,0,0.05,27.899999999999995,0)" xlink:href="#N"/><use transform="matrix(0.05,0,0,0.05,40.85,0)" xlink:href="#C"/><use transform="matrix(0.05,0,0,0.05,50.85,0)" xlink:href="#K"/><use transform="matrix(0.05,0,0,0.05,60.85,0)" xlink:href="#G"/><use transform="matrix(0.05,0,0,0.05,72.85,0)" xlink:href="#B"/><use transform="matrix(0.05,0,0,0.05,76.8,0)" xlink:href="#V"/><use transform="matrix(0.05,0,0,0.05,85.8,0)" xlink:href="#C"/><use transform="matrix(0.05,0,0,0.05,95.8,0)" xlink:href="#x"/><use transform="matrix(0.05,0,0,0.05,108.75,0)" xlink:href="#Q"/><use transform="matrix(0.05,0,0,0.05,118.75,0)" xlink:href="#C"/><use transform="matrix(0.05,0,0,0.05,128.75,0)" xlink:href="#t"/><use transform="matrix(0.05,0,0,0.05,137.75,0)" xlink:href="#U"/><use transform="matrix(0.05,0,0,0.05,146.75,0)" xlink:href="#C"/><use transform="matrix(0.05,0,0,0.05,156.75,0)" xlink:href="#D"/></g><g id="p"><use transform="matrix(0.05,0,0,0.05,0,0)" xlink:href="#F"/><use transform="matrix(0.05,0,0,0.05,5,0)" xlink:href="#B"/><use transform="matrix(0.05,0,0,0.05,8.95,0)" xlink:href="#E"/><use transform="matrix(0.05,0,0,0.05,12.899999999999999,0)" xlink:href="#C"/><use transform="matrix(0.05,0,0,0.05,22.9,0)" xlink:href="#G"/><use transform="matrix(0.05,0,0,0.05,34.9,0)" xlink:href="#B"/><use transform="matrix(0.05,0,0,0.05,38.85,0)" xlink:href="#V"/><use transform="matrix(0.05,0,0,0.05,47.85,0)" xlink:href="#C"/><use transform="matrix(0.05,0,0,0.05,57.85,0)" xlink:href="#x"/><use transform="matrix(0.05,0,0,0.05,70.8,0)" xlink:href="#A"/><use transform="matrix(0.05,0,0,0.05,80.8,0)" xlink:href="#E"/><use transform="matrix(0.05,0,0,0.05,84.75,0)" xlink:href="#t"/><use transform="matrix(0.05,0,0,0.05,93.75,0)" xlink:href="#J"/><use transform="matrix(0.05,0,0,0.05,103.75,0)" xlink:href="#E"/><use transform="matrix(0.05,0,0,0.05,107.7,0)" xlink:href="#A"/><use transform="matrix(0.05,0,0,0.05,117.7,0)" xlink:href="#z"/><use transform="matrix(0.05,0,0,0.05,122.7,0)" xlink:href="#u"/><use transform="matrix(0.05,0,0,0.05,132.7,0)" xlink:href="#D"/></g><path d="M179-190L93 31C79 59 56 82 12 73V49c39 6 53-20 64-50L1-190h34L92-34l54-156h33" id="Y"/><g id="q"><use transform="matrix(0.05,0,0,0.05,0,0)" xlink:href="#F"/><use transform="matrix(0.05,0,0,0.05,5,0)" xlink:href="#B"/><use transform="matrix(0.05,0,0,0.05,8.95,0)" xlink:href="#E"/><use transform="matrix(0.05,0,0,0.05,12.899999999999999,0)" xlink:href="#C"/><use transform="matrix(0.05,0,0,0.05,22.9,0)" xlink:href="#P"/><use transform="matrix(0.05,0,0,0.05,32.85,0)" xlink:href="#Y"/><use transform="matrix(0.05,0,0,0.05,41.85,0)" xlink:href="#w"/><use transform="matrix(0.05,0,0,0.05,51.85,0)" xlink:href="#C"/><use transform="matrix(0.05,0,0,0.05,61.85,0)" xlink:href="#T"/><use transform="matrix(0.05,0,0,0.05,72.5,0)" xlink:href="#A"/><use transform="matrix(0.05,0,0,0.05,82.5,0)" xlink:href="#E"/><use transform="matrix(0.05,0,0,0.05,86.45,0)" xlink:href="#B"/><use transform="matrix(0.05,0,0,0.05,90.4,0)" xlink:href="#K"/><use transform="matrix(0.05,0,0,0.05,100.4,0)" xlink:href="#A"/><use transform="matrix(0.05,0,0,0.05,110.4,0)" xlink:href="#z"/><use transform="matrix(0.05,0,0,0.05,115.4,0)" xlink:href="#u"/><use transform="matrix(0.05,0,0,0.05,125.4,0)" xlink:href="#D"/></g><g id="r"><use transform="matrix(0.05,0,0,0.05,0,0)" xlink:href="#L"/><use transform="matrix(0.05,0,0,0.05,9,0)" xlink:href="#J"/><use transform="matrix(0.05,0,0,0.05,19,0)" xlink:href="#w"/><use transform="matrix(0.05,0,0,0.05,29,0)" xlink:href="#w"/><use transform="matrix(0.05,0,0,0.05,39,0)" xlink:href="#E"/><use transform="matrix(0.05,0,0,0.05,42.95,0)" xlink:href="#B"/><use transform="matrix(0.05,0,0,0.05,46.900000000000006,0)" xlink:href="#C"/><use transform="matrix(0.05,0,0,0.05,56.900000000000006,0)" xlink:href="#K"/><use transform="matrix(0.05,0,0,0.05,66.9,0)" xlink:href="#G"/><use transform="matrix(0.05,0,0,0.05,78.9,0)" xlink:href="#B"/><use transform="matrix(0.05,0,0,0.05,82.85000000000001,0)" xlink:href="#V"/><use transform="matrix(0.05,0,0,0.05,91.85000000000001,0)" xlink:href="#C"/><use transform="matrix(0.05,0,0,0.05,101.85000000000001,0)" xlink:href="#T"/><use transform="matrix(0.05,0,0,0.05,112.5,0)" xlink:href="#A"/><use transform="matrix(0.05,0,0,0.05,122.5,0)" xlink:href="#E"/><use transform="matrix(0.05,0,0,0.05,126.45,0)" xlink:href="#B"/><use transform="matrix(0.05,0,0,0.05,130.4,0)" xlink:href="#K"/><use transform="matrix(0.05,0,0,0.05,140.4,0)" xlink:href="#A"/><use transform="matrix(0.05,0,0,0.05,150.4,0)" xlink:href="#z"/><use transform="matrix(0.05,0,0,0.05,155.4,0)" xlink:href="#u"/><use transform="matrix(0.05,0,0,0.05,165.4,0)" xlink:href="#D"/></g></defs></g></svg>